<svg width="765" height="290" viewBox="0 0 765 290" fill="none" xmlns="http://www.w3.org/2000/svg">
<rect y="64" width="765" height="226" fill="#CC562B"/>
<path d="M349.796 71.0117C349.755 73.4448 350.474 76.1811 349.022 77.7202C347.641 79.1854 344.139 79.5103 342.109 79.4754C339.629 79.4332 336.241 79.3333 334.902 77.2051C333.993 75.7585 334.683 72.6739 334.716 70.7539C334.769 67.6704 333.946 63.7637 336.112 62.2832C337.28 61.4859 340.945 62.2653 342.403 62.2901C344.289 62.3223 348.084 61.0622 349.383 62.3873C350.955 63.9904 349.841 68.4143 349.796 71.0117V71.0117Z" fill="white"/>
<path d="M344.865 76.3439C344.859 76.6984 344.784 77.0483 344.642 77.3736C344.501 77.6988 344.297 77.9931 344.042 78.2395C343.786 78.486 343.485 78.6798 343.155 78.8099C342.825 78.94 342.472 79.0038 342.117 78.9978C341.763 78.9918 341.412 78.916 341.087 78.7747C340.761 78.6334 340.467 78.4295 340.22 78.1745C339.974 77.9195 339.78 77.6185 339.649 77.2886C339.519 76.9588 339.455 76.6065 339.461 76.2519C339.473 75.5359 339.77 74.854 340.285 74.3563C340.801 73.8586 341.493 73.5858 342.209 73.598C342.926 73.6102 343.608 73.9063 344.107 74.4213C344.605 74.9362 344.878 75.6278 344.865 76.3439V76.3439Z" fill="white"/>
<path d="M349.561 71.7561L349.541 72.9238L349.487 76.4104V76.421L349.486 76.4316C349.412 80.4619 346.073 83.6812 342.039 83.6119C337.999 83.5433 334.777 80.212 334.842 76.1759V76.1653L334.907 72.6681L335.002 67.449L335.02 66.4028L335.059 64.3845C335.051 64.2366 335.049 64.0834 335.051 63.9301C335.12 59.8993 338.46 56.6695 342.499 56.7392C346.538 56.8079 349.765 60.1497 349.696 64.1806C349.694 64.3021 349.687 64.4236 349.68 64.5451V64.5557L349.644 66.6427L349.631 67.6936L349.561 71.7567C349.82 71.7778 350.079 71.7974 350.338 71.8143L350.484 64.5166H350.473C350.485 64.4109 350.487 64.3 350.489 64.1943C350.566 59.7197 346.996 56.0227 342.512 55.9467C338.029 55.8695 334.335 59.4423 334.258 63.9169C334.255 64.0701 334.258 64.2234 334.266 64.3713H334.25L334.043 76.4686L334.053 76.4738C334.143 80.809 337.648 84.33 342.025 84.4045C346.508 84.4816 350.203 80.9142 350.28 76.4342C350.284 76.1912 350.278 75.9534 350.26 75.7209L350.338 71.8143C350.079 71.7974 349.82 71.7778 349.561 71.7561V71.7561Z" fill="#2A2B2C"/>
<path d="M320.164 81.3653L334.219 76.7285C334.219 76.7285 341.951 82.4791 350.233 76.8822C350.233 76.8822 363.91 80.204 367.738 82.766C371.566 85.328 346.229 143.799 346.229 143.799L320.165 81.3653H320.164Z" fill="white"/>
<path d="M344.859 85.6588L352.668 118.871L345.852 141.459L339.893 126.925L337.694 122.064L343.162 84.6745L344.859 85.6588Z" fill="#CC562B"/>
<path d="M383.919 153.726C378.462 160.96 315.9 167.468 307.686 151.779C299.477 136.094 312.617 108.945 312.617 108.945L306.122 89.0419L305.968 88.7217C307.317 87.7162 308.723 86.7899 310.179 85.9473C322.36 78.9148 334.282 76.0792 334.399 76.0543L334.582 76.8241C334.497 76.8437 328.761 78.2127 321.217 81.3839L345.854 141.458L363.762 82.0887L364.067 81.5709C356.365 78.6253 349.971 77.1242 349.834 77.0957L350.012 76.3217C351.028 76.5557 371.08 81.2597 382.994 90.731L382.935 90.8045L376.202 110.815C376.202 110.815 389.376 146.492 383.919 153.726Z" fill="#2A2B2C"/>
<path d="M340.409 84.6258L343.805 79.6899L347.256 84.9899C347.256 84.9899 345.706 87.9497 343.97 87.694C342.234 87.4378 340.409 84.6258 340.409 84.6258H340.409Z" fill="#CC562B"/>
<path d="M349.157 141.662L348.425 141.358L364.126 103.563L364.559 103.325L372.392 104.664L370.668 84.1091L371.458 84.0436L373.226 105.107L372.764 105.531L364.737 104.16L349.157 141.662V141.662ZM342.442 142.855L323.048 107.085L314.254 110.29L313.722 109.923L313.389 84.4288L314.182 84.4192L314.507 109.355L323.098 106.223L323.582 106.407L343.14 142.477L342.442 142.855H342.442Z" fill="white"/>
<path d="M337.905 88.1082L326.379 79.1679L326.866 78.5408L338.051 87.2174L343.28 79.1996L343.935 79.1875L349.06 86.4154L358.367 78.8937L358.866 79.5108L349.23 87.2967L348.657 87.218L343.625 80.1211L338.48 88.0115L337.905 88.1082V88.1082Z" fill="#2A2B2C"/>
<path d="M343.901 88.0913C341.565 88.0506 339.932 84.937 339.864 84.8049L340.569 84.4409C340.583 84.4694 342.053 87.2666 343.915 87.2993H343.927C344.998 87.3104 346.047 86.389 347.044 84.5587L347.74 84.937C346.591 87.0462 345.305 88.1072 343.917 88.0919H343.901L343.901 88.0913Z" fill="#2A2B2C"/>
<path d="M338.045 122.418L337.359 121.616L342.319 87.3062L343.105 87.4203L338.045 122.419V122.418ZM352.439 119.632L344.897 87.3738L345.669 87.1931L353.055 118.781L352.439 119.632ZM323.892 98.0625C323.785 104.178 318.736 109.05 312.615 108.943C306.495 108.836 301.619 103.791 301.726 97.6757C301.833 91.56 306.882 86.6885 313.003 86.7953C319.123 86.902 323.999 91.9467 323.892 98.0625Z" fill="#2A2B2C"/>
<path d="M323.892 98.0625C323.785 104.178 318.736 109.05 312.615 108.943C306.495 108.836 301.619 103.791 301.726 97.6757C301.833 91.56 306.882 86.6885 313.003 86.7953C319.123 86.902 323.999 91.9467 323.892 98.0625Z" stroke="#2A2B2C" stroke-width="1.34328" stroke-miterlimit="10"/>
<path d="M387.362 99.9339C387.256 105.987 382.259 110.809 376.202 110.703C370.144 110.597 365.319 105.604 365.425 99.5514C365.53 93.4986 370.527 88.6768 376.585 88.7824C382.643 88.8881 387.468 93.8811 387.362 99.9339Z" fill="#2A2B2C"/>
<path d="M387.362 99.9339C387.256 105.987 382.259 110.809 376.202 110.703C370.144 110.597 365.319 105.604 365.425 99.5514C365.53 93.4986 370.527 88.6768 376.585 88.7824C382.643 88.8881 387.468 93.8811 387.362 99.9339Z" stroke="#2A2B2C" stroke-width="1.34328" stroke-miterlimit="10"/>
<path d="M383.919 153.726C378.462 160.96 315.9 167.468 307.686 151.779C299.477 136.094 312.617 108.945 312.617 108.945L306.122 89.0419L305.968 88.7217C307.317 87.7162 308.723 86.7899 310.179 85.9473C322.36 78.9148 334.282 76.0792 334.399 76.0543L334.582 76.8241C334.497 76.8437 328.761 78.2127 321.217 81.3839L345.854 141.458L363.762 82.0887L364.067 81.5709C356.365 78.6253 349.971 77.1242 349.834 77.0957L350.012 76.3217C351.028 76.5557 371.08 81.2597 382.994 90.731L382.935 90.8045L376.202 110.815C376.202 110.815 389.376 146.492 383.919 153.726Z" fill="#2A2B2C"/>
<path d="M349.53 76.4474V76.5029C341.986 81.8562 335.88 77.1168 334.892 76.2662L334.155 76.5774L334.218 76.7285C334.267 76.7723 337.464 79.6889 342.16 79.7708C344.518 79.8114 347.253 79.1383 350.156 77.0286L350.232 76.8822L349.53 76.4474V76.4474Z" fill="#2A2B2C"/>
<path d="M304.776 149.085L309.579 126.015L313.701 108.291L305.563 89.0307C305.563 89.0307 286.514 100.373 283.015 141.354C283.015 141.354 278.541 164.439 295.343 172.627C295.343 172.627 303.999 158.556 304.507 153.252C305.013 147.947 304.776 149.085 304.776 149.085H304.776Z" fill="#2A2B2C"/>
<path d="M323.892 98.0625C323.785 104.178 318.736 109.05 312.615 108.943C306.495 108.836 301.619 103.791 301.726 97.6757C301.833 91.56 306.882 86.6885 313.003 86.7953C319.123 86.902 323.999 91.9467 323.892 98.0625Z" fill="#2A2B2C"/>
<path d="M323.892 98.0625C323.785 104.178 318.736 109.05 312.615 108.943C306.495 108.836 301.619 103.791 301.726 97.6757C301.833 91.56 306.882 86.6885 313.003 86.7953C319.123 86.902 323.999 91.9467 323.892 98.0625Z" stroke="#2A2B2C" stroke-width="1.34328" stroke-miterlimit="10"/>
<path d="M312.673 163.173C312.566 169.29 307.517 174.161 301.397 174.054C295.276 173.947 290.401 168.903 290.508 162.787C290.615 156.672 295.663 151.8 301.784 151.907C307.905 152.014 312.78 157.058 312.673 163.173V163.173Z" fill="#2A2B2C"/>
<path d="M312.673 163.173C312.566 169.29 307.517 174.161 301.397 174.054C295.276 173.947 290.401 168.903 290.508 162.787C290.615 156.672 295.663 151.8 301.784 151.907C307.905 152.014 312.78 157.058 312.673 163.173V163.173Z" stroke="#2A2B2C" stroke-width="1.34328" stroke-miterlimit="10"/>
<path d="M308.799 133.041L308.018 132.907L309.211 125.951L309.993 126.086L308.799 133.041Z" fill="white"/>
<path d="M403.805 159.097C403.698 165.212 398.65 170.084 392.529 169.977C386.408 169.87 381.533 164.826 381.64 158.71C381.747 152.594 386.795 147.723 392.916 147.829C399.037 147.937 403.912 152.981 403.805 159.097Z" fill="#2A2B2C"/>
<path d="M399.316 167.952C399.316 167.952 392.444 174.862 358.264 171.813C358.264 171.813 330.555 171.212 322.811 159.911L329.056 147.068L388.21 148.785C388.21 148.785 400.635 151.725 399.316 167.952Z" fill="#2A2B2C"/>
<path d="M332.227 152.582C332.155 156.719 328.739 160.014 324.599 159.942C323.233 159.92 321.899 159.524 320.742 158.797L320.704 158.875C320.704 158.875 304.621 149.511 297.388 145.459C294.979 144.111 297.474 142.966 297.474 142.966C297.474 142.966 299.332 143.183 296.795 142.177C294.253 141.166 293.535 140.149 292.851 139.081C292.161 138.006 294.83 137.783 294.83 137.783C293.529 137.195 293.284 136.679 293.284 136.679C292.826 135.333 294.533 135.104 297.548 135.389C300.563 135.675 311.444 139.775 311.444 139.775C311.444 139.775 313.201 139.684 311.579 138.731C309.956 137.777 298.173 132.895 299.654 131.04C301.141 129.185 308.742 133.122 311.626 134.494C314.516 135.865 319.986 139.718 322.003 141.423C323.431 142.621 325.312 144.265 326.297 145.123C329.737 145.854 332.29 148.937 332.227 152.582Z" fill="white"/>
<path d="M329.119 152.527C329.114 153.106 328.993 153.678 328.765 154.21C328.537 154.742 328.206 155.224 327.791 155.627C327.376 156.031 326.885 156.348 326.346 156.562C325.808 156.775 325.232 156.879 324.653 156.869C324.074 156.859 323.502 156.734 322.972 156.503C322.441 156.271 321.961 155.936 321.56 155.519C321.159 155.101 320.845 154.608 320.636 154.068C320.427 153.528 320.327 152.952 320.341 152.374C320.361 151.211 320.843 150.103 321.681 149.295C322.518 148.487 323.643 148.044 324.807 148.065C325.971 148.085 327.08 148.566 327.888 149.403C328.697 150.24 329.14 151.364 329.12 152.527H329.119Z" fill="white"/>
<path d="M327.335 145.003C327.113 144.822 324.104 142.401 320.788 139.926C320.677 140.175 320.564 140.422 320.448 140.671C322.172 141.962 323.879 143.275 325.57 144.608C326.034 144.972 326.495 145.339 326.952 145.71C329.829 146.659 331.886 149.395 331.83 152.575C331.762 156.49 328.523 159.614 324.606 159.546C323.348 159.525 322.118 159.17 321.043 158.517C320.597 158.319 319.649 157.816 318.371 157.123C312 153.656 297.475 145.291 297.095 144.666C296.946 144.421 296.799 144.085 296.924 143.865C297.126 143.51 297.953 143.392 298.392 143.383C302.499 145.347 308.961 148.419 309.045 148.462L309.385 147.744C309.27 147.69 297.516 142.095 295.664 141.191C293.981 140.369 293.119 139.186 293.264 138.729C293.348 138.466 293.955 138.243 295.363 138.474C296.78 139.107 298.687 139.79 300.7 140.512C304.322 141.807 308.421 143.278 311.184 144.965L311.598 144.285C308.767 142.561 304.62 141.077 300.967 139.766C298.623 138.928 296.411 138.134 295.005 137.432C293.847 136.847 293.695 136.453 293.687 136.31C293.674 136.115 293.88 135.859 294.26 135.596C295.694 134.623 306.751 138.351 313.386 140.934L313.768 140.243C311.753 138.744 309.158 137.404 306.653 136.103C303.178 134.309 299.588 132.45 300.034 131.168C300.051 131.11 300.094 131.037 300.238 130.982C301.521 130.47 306.566 132.307 313.076 135.671C314.81 136.568 317.731 138.64 320.448 140.671C320.564 140.423 320.677 140.175 320.788 139.926C318.104 137.923 315.218 135.884 313.443 134.969C310.12 133.252 302.154 129.356 299.944 130.247C299.614 130.379 299.387 130.608 299.282 130.912C298.619 132.84 302.005 134.59 306.286 136.81C307.576 137.477 308.886 138.155 310.122 138.853C304.683 136.867 295.514 133.785 293.817 134.944C293.169 135.387 292.864 135.863 292.898 136.365C292.927 136.81 293.217 137.216 293.781 137.623C292.959 137.74 292.63 138.12 292.512 138.488C292.143 139.634 293.683 141.103 295.319 141.903C295.649 142.067 296.31 142.385 297.159 142.791C296.787 142.917 296.435 143.128 296.238 143.467C295.982 143.912 296.041 144.452 296.416 145.077C297.131 146.263 319.559 158.728 320.745 159.257C321.912 159.944 323.238 160.316 324.592 160.338C328.943 160.414 332.547 156.937 332.623 152.589C332.684 149.102 330.457 146.099 327.335 145.003H327.335Z" fill="#2A2B2C"/>
<path d="M368.161 145.745C368.147 146.515 367.828 147.248 367.274 147.783C366.719 148.318 365.975 148.611 365.204 148.598C364.433 148.584 363.7 148.265 363.164 147.711C362.629 147.157 362.336 146.413 362.349 145.643C362.368 144.877 362.69 144.149 363.244 143.619C363.797 143.089 364.539 142.799 365.305 142.812C366.072 142.826 366.803 143.142 367.338 143.691C367.872 144.24 368.168 144.979 368.16 145.745H368.161Z" fill="white"/>
<path d="M368.161 145.745C368.147 146.515 367.828 147.248 367.274 147.783C366.719 148.318 365.975 148.611 365.204 148.598C364.433 148.584 363.7 148.265 363.164 147.711C362.629 147.157 362.336 146.413 362.349 145.643C362.368 144.877 362.69 144.149 363.244 143.619C363.797 143.089 364.539 142.799 365.305 142.812C366.072 142.826 366.803 143.142 367.338 143.691C367.872 144.24 368.168 144.979 368.16 145.745H368.161Z" stroke="#2A2B2C" stroke-width="1.34328" stroke-miterlimit="10"/>
<path d="M380.522 146.232C379.699 147.09 375.113 149.182 371.304 150.78C371.001 150.907 370.708 151.028 370.415 151.144C369.946 151.337 369.498 151.52 369.078 151.687C367.9 152.438 366.526 152.826 365.129 152.801C361.211 152.733 358.073 149.487 358.142 145.572C358.16 144.506 358.419 143.458 358.899 142.506C359.379 141.553 360.068 140.722 360.914 140.072L361.32 139.831L361.683 139.615C361.86 139.502 362.037 139.389 362.219 139.271C362.684 138.972 363.165 138.668 363.667 138.36C363.959 138.178 364.253 138 364.549 137.827C369.28 134.971 374.899 132.11 376.131 132.992C378.059 134.379 380.18 144.324 380.522 146.232V146.232Z" fill="white"/>
<path d="M379.911 140.028C378.74 135.622 377.653 133.108 376.592 132.345C375.36 131.456 371.873 132.857 368.447 134.645C368.597 134.883 368.747 135.12 368.896 135.361C372.251 133.594 375.268 132.374 376.131 132.992C378.058 134.379 380.18 144.324 380.522 146.232C379.698 147.09 375.113 149.182 371.304 150.78C371.001 150.907 370.708 151.028 370.415 151.144C369.946 151.337 369.498 151.52 369.078 151.687C367.9 152.439 366.526 152.826 365.129 152.802C361.211 152.733 358.073 149.487 358.142 145.572C358.16 144.506 358.419 143.458 358.899 142.506C359.379 141.553 360.068 140.722 360.914 140.072L361.32 139.831L361.683 139.615C361.86 139.502 362.037 139.389 362.219 139.271C362.684 138.972 363.165 138.668 363.667 138.36C363.956 138.181 364.25 138.001 364.549 137.827C365.974 136.964 367.424 136.141 368.896 135.361C368.747 135.12 368.597 134.883 368.447 134.645C365.381 136.245 362.362 138.154 361.054 139.007C360.974 139.059 360.899 139.105 360.835 139.151C360.808 139.167 360.782 139.182 360.76 139.198V139.203C359.726 139.914 358.877 140.862 358.284 141.968C357.691 143.073 357.37 144.304 357.349 145.559C357.273 149.912 360.759 153.518 365.115 153.594C366.749 153.622 368.28 153.153 369.553 152.319L369.559 152.314C371.236 151.651 380.322 147.994 381.278 146.552C381.495 146.207 379.931 140.087 379.911 140.028V140.028Z" fill="#2A2B2C"/>
<path d="M295.588 172.29C295.588 172.29 309.959 182.008 334.226 170.829C334.226 170.829 354.421 163.077 369.25 152.012L360.993 139.592L301.964 149.962C301.964 149.962 291.055 156.651 295.588 172.29V172.29Z" fill="#2A2B2C"/>
<path d="M312.673 163.173C312.566 169.29 307.517 174.161 301.397 174.054C295.276 173.947 290.401 168.903 290.508 162.787C290.615 156.672 295.663 151.8 301.784 151.907C307.905 152.014 312.78 157.058 312.673 163.173V163.173Z" fill="#2A2B2C"/>
<path d="M338.836 169.354L338.513 168.63C338.742 168.528 361.441 158.38 368.986 151.715L369.512 152.308C361.875 159.054 339.773 168.936 338.836 169.354ZM301.964 149.962L301.831 149.18L360.927 139.201L361.059 139.983L301.964 149.962V149.962Z" fill="white"/>
<path d="M379.916 147.603L374.397 126.032L372.125 108.762L380.93 89.7969C380.93 89.7969 393.891 92.0366 400.503 138.062C401.429 144.509 408.258 159.174 398.472 168.371C398.472 168.371 386.625 157.553 382.931 153.711C380.785 151.478 379.916 147.603 379.916 147.603Z" fill="#2A2B2C"/>
<path d="M375.976 132.759L374.397 126.032L375.169 125.851L376.748 132.578L375.976 132.759V132.759Z" fill="white"/>
<path d="M387.476 99.936C387.369 106.052 382.321 110.923 376.2 110.817C370.079 110.71 365.204 105.665 365.311 99.5493C365.418 93.4336 370.466 88.5621 376.587 88.6688C382.708 88.7761 387.583 93.8203 387.476 99.936ZM403.805 159.097C403.698 165.212 398.65 170.084 392.529 169.977C386.408 169.87 381.533 164.826 381.64 158.71C381.746 152.594 386.795 147.723 392.916 147.829C399.037 147.937 403.912 152.981 403.805 159.097Z" fill="#2A2B2C"/>
<path d="M400.006 134.693C398.826 127.27 394.517 110.046 394.484 109.932L395.247 109.713C395.28 109.828 399.603 127.097 400.79 134.568L400.006 134.693ZM404.457 155.46L403.67 155.368C403.769 150.611 401.586 142.894 401.569 142.816L402.327 142.548C402.4 142.87 404.759 150.534 404.458 155.46H404.457Z" fill="white"/>
<path d="M324.289 48.1877C324.804 49.5139 322.14 63.4361 342.245 66.8007C342.245 66.8007 359.196 65.8549 360.52 49.3459C365.838 52.9102 372.897 51.6305 373.792 43.8425C374.019 38.7344 367.918 33.4894 361.201 37.7463C361.442 35.5378 362.481 21.3049 362.481 21.3049L324.589 24.5659C324.589 24.5659 324.093 35.9346 323.914 37.3448C321.883 35.103 312.855 33.3145 311.492 42.2432C309.888 52.7543 322.695 51.3309 324.288 48.1877H324.289Z" fill="white"/>
<path d="M346.431 64.1193C346.423 64.6518 346.31 65.1775 346.099 65.6663C345.887 66.1552 345.582 66.5977 345.199 66.9685C344.816 67.3393 344.365 67.6312 343.869 67.8275C343.374 68.0238 342.844 68.1207 342.311 68.1126C341.779 68.1045 341.252 67.9916 340.763 67.7804C340.274 67.5691 339.831 67.2637 339.46 66.8814C339.089 66.4992 338.797 66.0476 338.6 65.5526C338.404 65.0575 338.307 64.5287 338.315 63.9962C338.323 63.4637 338.436 62.938 338.647 62.4491C338.859 61.9603 339.164 61.5178 339.547 61.147C339.93 60.7762 340.382 60.4843 340.877 60.288C341.372 60.0916 341.902 59.9948 342.435 60.0028C342.968 60.0109 343.494 60.1238 343.983 60.3351C344.472 60.5463 344.915 60.8518 345.286 61.234C345.657 61.6163 345.949 62.0678 346.146 62.5629C346.342 63.0579 346.439 63.5868 346.431 64.1193V64.1193Z" fill="white"/>
<path d="M342.319 46.7981C342.132 46.7953 341.947 46.7726 341.765 46.7305L340.754 46.4943L340.934 45.7224L341.946 45.9586C342.473 46.0833 343.034 45.9644 343.407 45.6521C343.654 45.4456 343.783 45.1782 343.768 44.9013L343.225 36.9638L344.016 36.9094L344.559 44.8538C344.588 45.3917 344.359 45.8883 343.916 46.2592C343.489 46.6164 342.91 46.8071 342.319 46.7981ZM365.574 42.5391C363.148 41.3154 361.839 42.0583 361.827 42.0662L361.307 41.4829C364.535 37.46 369.537 40.1091 369.587 40.1356L369.208 40.833C369.046 40.7453 365.609 38.9367 362.873 41.0422C363.626 41.0232 364.651 41.1854 365.931 41.8316L365.573 42.5391H365.574ZM319.046 41.8327L318.711 41.1151C320.01 40.5086 321.044 40.3754 321.791 40.4193C319.121 38.2319 315.631 39.9353 315.466 40.0177L315.108 39.3097C315.159 39.2833 320.239 36.7895 323.343 40.907L322.806 41.4744C322.757 41.4443 321.51 40.6819 319.046 41.8327V41.8327ZM352.099 39.3504C351.987 39.1794 351.843 39.0321 351.674 38.9172C351.505 38.8023 351.315 38.722 351.115 38.681C350.915 38.6384 350.709 38.636 350.508 38.6738C350.307 38.7116 350.115 38.789 349.944 38.9013C349.773 39.0127 349.626 39.157 349.51 39.3258C349.395 39.4946 349.315 39.6845 349.274 39.8846C349.227 40.1091 349.231 40.3412 349.285 40.5642C349.338 40.7872 349.44 40.9956 349.584 41.1745C349.728 41.3534 349.909 41.4984 350.115 41.5991C350.321 41.6998 350.547 41.7538 350.777 41.7571C351.086 41.7616 351.39 41.6731 351.649 41.503C351.821 41.3916 351.968 41.2473 352.083 41.0785C352.198 40.9097 352.279 40.7198 352.32 40.5197C352.362 40.3199 352.364 40.1137 352.326 39.913C352.288 39.7123 352.211 39.5211 352.099 39.3504V39.3504ZM336.356 38.4565C336.144 38.4115 335.924 38.4115 335.712 38.4565C335.499 38.5015 335.298 38.5904 335.122 38.7176C334.946 38.8448 334.799 39.0074 334.689 39.195C334.58 39.3826 334.511 39.591 334.487 39.8067C334.463 40.0225 334.485 40.2409 334.551 40.4478C334.616 40.6547 334.725 40.8456 334.869 41.0082C335.013 41.1708 335.189 41.3014 335.387 41.3917C335.584 41.482 335.798 41.53 336.016 41.5325C336.377 41.5373 336.729 41.4166 337.011 41.191C337.293 40.9654 337.488 40.6489 337.562 40.2957C337.646 39.8921 337.566 39.4718 337.34 39.127C337.114 38.7822 336.76 38.5411 336.356 38.4565V38.4565Z" fill="#2A2B2C"/>
<path d="M327.426 45.1703C327.417 45.7966 327.657 46.4011 328.093 46.8507C328.53 47.3003 329.127 47.5582 329.754 47.5677C330.381 47.5771 330.986 47.3374 331.436 46.9012C331.886 46.4649 332.144 45.868 332.153 45.2416C332.163 44.6152 331.923 44.0107 331.486 43.5611C331.05 43.1115 330.452 42.8536 329.826 42.8442C329.199 42.8347 328.594 43.0745 328.144 43.5107C327.694 43.9469 327.436 44.5439 327.426 45.1703V45.1703Z" fill="#CC562B"/>
<path d="M354.717 35.1526C354.557 35.7761 353.094 35.9409 351.449 35.5209C349.803 35.1003 348.598 34.2544 348.757 33.6315C348.918 33.008 350.38 32.8432 352.026 33.2638C353.671 33.6838 354.876 34.5297 354.717 35.1526H354.717ZM332.68 34.8187C332.82 35.4459 334.277 35.6551 335.935 35.2852C337.593 34.9154 338.823 34.1065 338.682 33.4783C338.542 32.8506 337.085 32.6414 335.427 33.0117C333.769 33.3816 332.539 34.1905 332.68 34.8187V34.8187ZM343.22 50.0512C343.207 50.0549 342.337 50.2774 341.22 50.158L341.188 50.1543L341.159 50.15C340.366 50.0359 339.428 49.7522 338.584 49.105V49.1044C337.552 48.2696 336.852 46.9667 336.498 45.2226L335.715 45.249C335.618 45.9739 335.035 50.6736 335.865 53.8126C336.098 53.6822 336.343 53.5724 336.596 53.4845C336.412 52.7131 336.309 51.8191 336.263 50.8956C337.267 51.2813 339.719 52.4711 340.321 55.0379C340.046 55.3094 339.755 55.5351 339.449 55.6867C338.983 55.9165 338.535 55.9509 338.078 55.7908C337.337 55.5319 336.874 54.6495 336.596 53.4845C336.343 53.5722 336.098 53.6818 335.865 53.8121C336.215 55.1393 336.816 56.1892 337.816 56.5384C338.069 56.6286 338.335 56.6771 338.604 56.6821C339.004 56.6885 339.404 56.5928 339.8 56.3968C342.16 55.2281 343.638 50.7466 343.699 50.5558L343.22 50.0507V50.0512Z" fill="#2A2B2C"/>
<path d="M357.542 40.4272L357.487 44.0502L345.816 43.8732L345.933 36.1608L357.604 36.3383L357.542 40.4272C357.807 40.4251 358.072 40.4167 358.336 40.4029L358.403 35.9542L358.013 35.5516L345.549 35.3624L345.146 35.7529L345.017 44.2573L345.407 44.6594L357.871 44.8485L358.274 44.4586L358.336 40.4029C358.072 40.4167 357.807 40.4251 357.543 40.4272H357.542ZM341.741 35.3048L329.277 35.1157L328.875 35.5056L328.745 44.01L329.135 44.4126L336.545 44.5246C336.398 44.2653 336.265 43.9988 336.144 43.7263L329.544 43.6259L329.661 35.914L341.332 36.091L341.215 43.8029L336.144 43.7263C336.261 43.9936 336.397 44.2599 336.545 44.5246L341.6 44.6018L342.002 44.2113L342.132 35.7069L341.741 35.3048H341.741Z" fill="#2A2B2C"/>
<path d="M341.837 37.4536L341.591 36.7002C341.689 36.6685 343.999 35.9325 345.699 36.7805L345.345 37.4895C343.933 36.7858 341.858 37.4473 341.837 37.4536Z" fill="#2A2B2C"/>
<path d="M366.399 35.7713C365.963 35.765 365.542 35.7967 365.129 35.8474C367.535 22.3183 365.756 14.729 359.831 13.294L359.724 13.2676C359.828 11.2265 359.309 9.25364 358.129 7.44666C354.624 2.08066 346.357 -0.251502 339.309 2.13667C327.301 6.20555 324.79 12.1437 324.35 13.5629C323.303 13.6633 320.091 14.4331 319.075 20.0659C318.067 25.648 319.727 33.0133 320.271 35.1817C319.837 35.1077 319.393 35.058 318.938 35.0512C314.542 34.9841 310.911 38.5045 310.844 42.8973C310.823 44.2378 311.142 45.5618 311.772 46.7458C311.84 46.8816 311.913 47.0127 311.987 47.1241C313.412 49.4996 315.92 50.9426 318.696 50.9848C318.776 50.9859 318.856 50.9875 318.946 50.9838C320.737 50.9599 322.467 50.3304 323.854 49.1979C324.113 53.7598 326.016 58.0268 329.267 61.2936C332.727 64.7702 337.336 66.7267 342.245 66.8012C347.582 66.882 352.404 64.738 355.841 61.2059L355.179 60.7473C351.894 64.0722 347.318 66.0858 342.257 66.0087C337.556 65.9373 333.143 64.0643 329.83 60.7346C326.52 57.4097 324.67 53.0026 324.617 48.3251L323.939 48.0503C322.603 49.4024 320.825 50.1627 318.898 50.1918C318.835 50.1944 318.774 50.1928 318.708 50.1923C316.208 50.1543 313.95 48.8556 312.658 46.7036C312.591 46.5997 312.531 46.4921 312.476 46.3813C311.907 45.3133 311.618 44.1186 311.637 42.9089C311.698 38.9531 314.968 35.7835 318.927 35.8432C320.958 35.8744 322.791 36.6537 324.087 38.0369L324.111 38.0147L324.155 38.0538L329.309 37.2793L329.191 36.4957L324.509 37.1995L324.9 25.6739C328.072 27.0334 344.225 33.1951 354.713 22.9127C356.2 25.2385 359.713 26.3058 360.783 26.5843L360.92 37.5794L358.098 36.7742L357.879 37.536L361.214 38.4871L361.236 38.4712L361.275 38.5114C362.571 37.2063 364.338 36.5327 366.386 36.5639C370.343 36.6241 373.513 39.8915 373.453 43.8478C373.393 47.8036 370.125 50.9732 366.169 50.913C365.197 50.9023 364.239 50.6928 363.352 50.2975C362.465 49.9022 361.668 49.3295 361.011 48.6146L360.324 48.8661C360.121 53.5368 358.194 57.695 355.179 60.7473L355.841 61.2054C358.748 58.2186 360.666 54.24 361.059 49.7643C362.471 50.9938 364.251 51.6765 366.156 51.7055C370.551 51.7721 374.18 48.2522 374.247 43.8594C374.313 39.4667 370.793 35.8379 366.399 35.7713V35.7713Z" fill="#2A2B2C"/>
<path d="M342.73 66.5214L349.938 71.7376L349.981 64.6299C349.981 64.6299 348.187 65.5081 346.736 65.8315C345.285 66.155 342.73 66.5214 342.73 66.5214V66.5214Z" fill="#2A2B2C"/>
</svg>
